<svg width="1880" height="520" viewBox="0 0 1880 520" xmlns="http://www.w3.org/2000/svg">
  <rect width="1880" height="520" fill="#f7f5ff"/>

  <defs>
    <g id="base">
      <image href="file:///Users/matejlukasik/Projects/matejlukasik.com/public/favicon.svg" x="0" y="0" width="320" height="320"/>
    </g>
  </defs>

  <g transform="translate(40 70)">
    <use href="#base"/>
    <circle cx="259" cy="64" r="11" fill="#B9A7FF"/>
    <circle cx="259" cy="64" r="4" fill="#FFFFFF"/>
  </g>

  <g transform="translate(400 70)">
    <use href="#base"/>
    <line x1="164" y1="232" x2="250" y2="232" stroke="#B9A7FF" stroke-width="12" stroke-linecap="round"/>
    <circle cx="164" cy="232" r="8" fill="#FFFFFF"/>
    <circle cx="250" cy="232" r="8" fill="#FFFFFF"/>
  </g>

  <g transform="translate(760 70)">
    <use href="#base"/>
    <path d="M238 54H276V92" fill="none" stroke="#B9A7FF" stroke-width="11" stroke-linecap="round" stroke-linejoin="round"/>
    <circle cx="238" cy="54" r="5" fill="#FFFFFF"/>
  </g>

  <g transform="translate(1120 70)">
    <use href="#base"/>
    <circle cx="103" cy="257" r="6" fill="#7665B8"/>
    <circle cx="131" cy="243" r="7" fill="#9B89E8"/>
    <circle cx="260" cy="66" r="10" fill="#FFFFFF"/>
    <path d="M103 257 L131 243 L260 66" fill="none" stroke="#B9A7FF" stroke-width="5" stroke-linecap="round" opacity="0.75"/>
  </g>

  <g transform="translate(1480 70)">
    <use href="#base"/>
    <path d="M231 226H251V207H271V182" fill="none" stroke="#8FD19E" stroke-width="12" stroke-linecap="round" stroke-linejoin="round"/>
    <circle cx="271" cy="182" r="7" fill="#FFFFFF"/>
  </g>
</svg>
