<svg width="1800" height="920" viewBox="0 0 1800 920" xmlns="http://www.w3.org/2000/svg">
  <defs>
    <style>
      @font-face {
        font-family: "SpaceGroteskPrototype";
        font-weight: 700;
        src: url("SpaceGrotesk-Bold.ttf") format("truetype");
      }
      .ml {
        font-family: "SpaceGroteskPrototype", system-ui, sans-serif;
        font-size: 210px;
        font-weight: 700;
        fill: #1B1340;
      }
      .ml-white {
        font-family: "SpaceGroteskPrototype", system-ui, sans-serif;
        font-size: 150px;
        font-weight: 700;
        fill: #ffffff;
      }
      .name {
        font-family: "SpaceGroteskPrototype", system-ui, sans-serif;
        font-size: 74px;
        font-weight: 700;
        fill: #1B1340;
      }
      .role {
        font-family: "SpaceGroteskPrototype", system-ui, sans-serif;
        font-size: 36px;
        font-weight: 700;
        fill: #6F6296;
      }
      .tile {
        fill: #ffffff;
        stroke: #E5DFF7;
        stroke-width: 2;
      }
      .x {
        stroke: #9F8CFF;
        stroke-linecap: square;
      }
    </style>
    <g id="x-inline">
      <path d="M0 0 L66 66 M66 0 L0 66" class="x" stroke-width="20"/>
    </g>
    <g id="x-bold">
      <path d="M0 0 L76 76 M76 0 L0 76" class="x" stroke-width="26"/>
    </g>
    <g id="x-small">
      <path d="M0 0 L54 54 M54 0 L0 54" class="x" stroke-width="17"/>
    </g>
  </defs>

  <rect width="1800" height="920" fill="#F6F3FF"/>

  <rect class="tile" x="64" y="64" width="500" height="320" rx="32"/>
  <text class="ml" x="155" y="267">ml</text>
  <use href="#x-inline" x="399" y="139"/>

  <rect class="tile" x="650" y="64" width="500" height="320" rx="32"/>
  <text class="ml" x="735" y="267">ml</text>
  <use href="#x-bold" x="1010" y="132"/>

  <rect class="tile" x="1236" y="64" width="500" height="320" rx="32"/>
  <text class="ml" x="1335" y="267">ml</text>
  <use href="#x-small" x="1587" y="103"/>

  <rect class="tile" x="262" y="500" width="500" height="320" rx="32"/>
  <rect x="372" y="528" width="264" height="264" rx="58" fill="#1B1340"/>
  <text class="ml-white" x="504" y="690" text-anchor="middle">ml</text>
  <use href="#x-small" x="585" y="575"/>

  <rect class="tile" x="858" y="500" width="680" height="320" rx="32"/>
  <text class="ml" x="942" y="690">ml</text>
  <use href="#x-inline" x="1180" y="562"/>
  <text class="name" x="1285" y="623">Matej Lukášik</text>
  <text class="role" x="1287" y="681">Agentic AI Consultant</text>
</svg>
